<?xml version="1.0" encoding="UTF-8" standalone="no"?>
<svg
   xmlns:dc="http://purl.org/dc/elements/1.1/"
   xmlns:cc="http://creativecommons.org/ns#"
   xmlns:rdf="http://www.w3.org/1999/02/22-rdf-syntax-ns#"
   xmlns:svg="http://www.w3.org/2000/svg"
   xmlns="http://www.w3.org/2000/svg"
   xmlns:sodipodi="http://sodipodi.sourceforge.net/DTD/sodipodi-0.dtd"
   xmlns:inkscape="http://www.inkscape.org/namespaces/inkscape"
   width="67.326889mm"
   height="39.254826mm"
   viewBox="0 0 67.326889 39.254826"
   version="1.1"
   id="svg102"
   inkscape:version="1.0.2-2 (e86c870879, 2021-01-15)"
   sodipodi:docname="infinity.svg">
  <defs
     id="defs96">
    <rect
       x="12.095238"
       y="111.125"
       width="8.5044641"
       height="12.473214"
       id="rect123" />
    <filter
       inkscape:collect="always"
       style="color-interpolation-filters:sRGB"
       id="filter2016"
       x="-0.12629735"
       width="1.2525947"
       y="-0.26437056"
       height="1.5287411">
      <feGaussianBlur
         inkscape:collect="always"
         stdDeviation="2.8285312"
         id="feGaussianBlur2018" />
    </filter>
  </defs>
  <sodipodi:namedview
     id="base"
     pagecolor="#ffffff"
     bordercolor="#666666"
     borderopacity="1.0"
     inkscape:pageopacity="0.0"
     inkscape:pageshadow="2"
     inkscape:zoom="1.4"
     inkscape:cx="51.444247"
     inkscape:cy="111.24"
     inkscape:document-units="mm"
     inkscape:current-layer="layer1"
     inkscape:document-rotation="0"
     showgrid="false"
     inkscape:pagecheckerboard="true"
     inkscape:window-width="1280"
     inkscape:window-height="961"
     inkscape:window-x="-8"
     inkscape:window-y="-8"
     inkscape:window-maximized="1" />
  <metadata
     id="metadata99">
    <rdf:RDF>
      <cc:Work
         rdf:about="">
        <dc:format>image/svg+xml</dc:format>
        <dc:type
           rdf:resource="http://purl.org/dc/dcmitype/StillImage" />
        <dc:title></dc:title>
      </cc:Work>
    </rdf:RDF>
  </metadata>
  <g
     inkscape:label="Layer 1"
     inkscape:groupmode="layer"
     id="layer1"
     transform="translate(-16.611011,-46.896599)">
    <path
       id="path958"
       style="fill:#00a900;fill-opacity:1;stroke-width:0.264583;filter:url(#filter2016)"
       d="m 32.746033,78.964315 c -5.774077,-1.176367 -9.43505,-6.265966 -9.31124,-11.745189 -0.278836,-3.789135 1.09654,-7.703694 4.032435,-10.192204 4.647378,-4.403659 12.701306,-4.492475 17.358467,-0.04487 2.109467,1.8081 4.011818,3.843835 5.751468,6.007167 2.927731,-3.628747 6.132298,-7.469267 10.713719,-8.959928 6.530533,-1.57192 13.818636,2.786596 15.429571,9.328771 1.399195,4.76266 -0.750895,9.986335 -4.611884,12.937854 -3.875628,3.253945 -9.915662,4.276039 -14.201548,1.21213 -2.877907,-1.865013 -5.135847,-4.475419 -7.282608,-7.111057 -3.047335,3.613311 -6.541956,7.777374 -11.170139,8.679015 -2.5451,0.495825 -4.8021,0.276765 -6.708241,-0.111689 z m 7.50005,-5.13098 c 3.016241,-1.756716 5.249098,-4.500523 7.50248,-7.106719 -2.535559,-2.911645 -4.986533,-6.099637 -8.456337,-7.930461 -4.077179,-1.522119 -9.484749,0.361612 -10.889262,4.699313 -0.558751,2.12598 -0.563291,4.527711 0.261913,6.58884 1.777257,4.395417 7.574369,5.844522 11.581206,3.749027 z m 26.89946,0.28429 c 3.053888,-1.563327 5.78341,-4.708107 5.3229,-8.35304 -0.32386,-4.484729 -4.977285,-7.878036 -9.321682,-7.482098 -3.216231,0.896733 -5.479244,3.59517 -7.665056,5.956624 -0.670509,0.794772 -1.306051,1.618107 -1.957952,2.428054 2.185817,2.887594 4.673985,5.69021 7.81747,7.543433 1.778996,1.052298 3.980215,0.55636 5.80432,-0.09297 z"
       sodipodi:nodetypes="ccccccccccscccccccscccccss" />
    <path
       id="path118"
       style="fill:#5cff47;fill-opacity:1;stroke-width:0.264583"
       d="m 32.746033,78.964315 c -5.774077,-1.176367 -9.43505,-6.265966 -9.31124,-11.745189 -0.278836,-3.789135 1.09654,-7.703694 4.032435,-10.192204 4.647378,-4.403659 12.701306,-4.492475 17.358467,-0.04487 2.109467,1.8081 4.011818,3.843835 5.751468,6.007167 2.927731,-3.628747 6.132298,-7.469267 10.713719,-8.959928 6.530533,-1.57192 13.818636,2.786596 15.429571,9.328771 1.399195,4.76266 -0.750895,9.986335 -4.611884,12.937854 -3.875628,3.253945 -9.915662,4.276039 -14.201548,1.21213 -2.877907,-1.865013 -5.135847,-4.475419 -7.282608,-7.111057 -3.047335,3.613311 -6.541956,7.777374 -11.170139,8.679015 -2.5451,0.495825 -4.8021,0.276765 -6.708241,-0.111689 z m 7.50005,-5.13098 c 3.016241,-1.756716 5.249098,-4.500523 7.50248,-7.106719 -2.535559,-2.911645 -4.986533,-6.099637 -8.456337,-7.930461 -4.077179,-1.522119 -9.484749,0.361612 -10.889262,4.699313 -0.558751,2.12598 -0.563291,4.527711 0.261913,6.58884 1.777257,4.395417 7.574369,5.844522 11.581206,3.749027 z m 26.89946,0.28429 c 3.053888,-1.563327 5.78341,-4.708107 5.3229,-8.35304 -0.32386,-4.484729 -4.977285,-7.878036 -9.321682,-7.482098 -3.216231,0.896733 -5.479244,3.59517 -7.665056,5.956624 -0.670509,0.794772 -1.306051,1.618107 -1.957952,2.428054 2.185817,2.887594 4.673985,5.69021 7.81747,7.543433 1.778996,1.052298 3.980215,0.55636 5.80432,-0.09297 z"
       sodipodi:nodetypes="ccccccccccscccccccscccccss" />
  </g>
</svg>
