<?xml version="1.0" encoding="UTF-8" standalone="no"?>
<svg
   xmlns:dc="http://purl.org/dc/elements/1.1/"
   xmlns:cc="http://creativecommons.org/ns#"
   xmlns:rdf="http://www.w3.org/1999/02/22-rdf-syntax-ns#"
   xmlns:svg="http://www.w3.org/2000/svg"
   xmlns="http://www.w3.org/2000/svg"
   xmlns:sodipodi="http://sodipodi.sourceforge.net/DTD/sodipodi-0.dtd"
   xmlns:inkscape="http://www.inkscape.org/namespaces/inkscape"
   width="79.428749mm"
   height="64.801453mm"
   viewBox="0 0 79.428749 64.801453"
   version="1.1"
   id="svg6879"
   inkscape:version="1.0.2-2 (e86c870879, 2021-01-15)"
   sodipodi:docname="teamLogoTry.svg">
  <defs
     id="defs6873">
    <rect
       x="52.117558"
       y="206.59933"
       width="81.249939"
       height="10.156242"
       id="rect6907" />
  </defs>
  <sodipodi:namedview
     id="base"
     pagecolor="#000000"
     bordercolor="#666666"
     borderopacity="1.0"
     inkscape:pageopacity="0.40784314"
     inkscape:pageshadow="2"
     inkscape:zoom="11.313709"
     inkscape:cx="144.08362"
     inkscape:cy="93.02801"
     inkscape:document-units="mm"
     inkscape:current-layer="layer1"
     inkscape:document-rotation="0"
     showgrid="false"
     inkscape:window-width="1280"
     inkscape:window-height="961"
     inkscape:window-x="-8"
     inkscape:window-y="-8"
     inkscape:window-maximized="1"
     inkscape:pagecheckerboard="true"
     units="mm"
     fit-margin-top="0"
     fit-margin-left="0"
     fit-margin-right="0"
     fit-margin-bottom="0"
     inkscape:snap-global="true"
     inkscape:object-paths="false" />
  <metadata
     id="metadata6876">
    <rdf:RDF>
      <cc:Work
         rdf:about="">
        <dc:format>image/svg+xml</dc:format>
        <dc:type
           rdf:resource="http://purl.org/dc/dcmitype/StillImage" />
        <dc:title></dc:title>
      </cc:Work>
    </rdf:RDF>
  </metadata>
  <g
     inkscape:label="Layer 1"
     inkscape:groupmode="layer"
     id="layer1"
     style="display:inline"
     transform="translate(-0.12693273,-0.39271089)">
    <path
       style="display:inline;opacity:1;fill:#35302d;fill-opacity:1;stroke:none;stroke-width:0.1;stroke-linecap:butt;stroke-linejoin:miter;stroke-miterlimit:4;stroke-dasharray:none;stroke-opacity:0.698795"
       d="m 61.023983,32.737184 c 0.0239,0.024 -1.499388,-2.49088 -7.425142,-1.31438 -2.934886,0.58269 -5.203183,3.50467 -6.121381,5.64376 -1.164589,2.7131 -1.341658,5.89409 -0.886189,8.81642 0.363629,2.33305 1.295048,4.77803 2.927256,6.48426 1.506657,1.57499 3.216535,2.41291 5.352232,2.8481 2.197193,0.369938 4.757016,-0.08932 6.235784,-1.38456 -0.39466,0.15316 -5.312036,1.47655 -7.851882,-1.33586 -1.608357,-1.78096 -2.644456,-3.98727 -3.113345,-6.34559 -0.48263,-2.42742 -0.31799,-4.93301 0.324489,-7.30962 0.49506,-1.83126 1.704218,-3.33003 2.891916,-4.51662 2.240927,-2.23883 7.666262,-1.58591 7.666262,-1.58591 z"
       id="path2970-7"
       sodipodi:nodetypes="cssssccssssc" />
    <path
       style="display:inline;opacity:1;fill:#35302d;fill-opacity:1;stroke:none;stroke-width:0.1;stroke-linecap:butt;stroke-linejoin:miter;stroke-miterlimit:4;stroke-dasharray:none;stroke-opacity:0.698795"
       d="m 8.2589599,34.959534 c -0.02488,-0.0754 -2.029994,-0.0615 -2.8789737,0.5202 -1.1016804,0.75485 -1.8966822,1.67573 -2.4229664,2.77058 -0.5073733,1.05551 -0.7651319,2.25166 -0.9532396,3.4201 -0.1780277,1.10583 -0.2333817,2.23881 -0.1592918,3.35642 0.07416,1.11868 0.2092557,2.25891 0.6015371,3.30918 0.3009966,0.80587 0.723794,1.59604 1.3160011,2.22 0.5504342,0.57994 1.2344482,1.08798 1.996776,1.32915 0.7836919,0.24793 2.3817985,-0.17375 2.4150285,-0.22399 0.017,-0.0265 -0.4604254,-0.1447 -0.9346976,-0.50171 -0.4401214,-0.3313 -0.8661148,-0.88441 -1.1761823,-1.35696 -0.6123211,-0.93319 -1.1640113,-2.06732 -1.4450969,-3.24567 -0.2760376,-1.15719 -0.5215392,-2.44158 -0.5217102,-3.68076 -1.76e-4,-1.28368 0.1369068,-2.59412 0.5393932,-3.81307 0.3000316,-0.90865 0.7326249,-1.80882 1.369531,-2.52298 0.6107461,-0.68483 2.2538916,-1.58049 2.2538916,-1.58049 z"
       id="path2973-2"
       sodipodi:nodetypes="cssaaaascsssaaac" />
    <path
       style="display:inline;opacity:1;mix-blend-mode:normal;fill:#ee1c25;fill-opacity:1;fill-rule:nonzero;stroke:none;stroke-width:0.1;stroke-linecap:butt;stroke-linejoin:miter;stroke-miterlimit:4;stroke-dasharray:none;stroke-opacity:0.698795"
       d="m 0.26431679,42.673714 c 0,0 -0.27146931,-3.212323 -0.0511999,-4.79575 0.17689959,-1.271659 0.40701782,-2.607349 1.09077231,-3.694037 0.7564934,-1.202291 1.8651585,-2.27749 3.1622145,-2.856656 1.6635474,-0.742812 3.6158654,-0.667504 5.4353285,-0.574151 2.6731978,0.137156 5.2186208,1.207636 7.8574418,1.656434 3.198894,0.544052 6.408584,1.260923 9.653405,1.25379 2.386964,-0.0052 4.89601,-0.03014 7.09714,-0.95353 1.736862,-0.728627 3.02737,-2.069782 4.460863,-3.46828 l 10.038545,-6.29866 c 0,0 4.64775,-1.205237 6.997143,-1.694521 2.445083,-0.509212 4.901995,-0.984147 7.380724,-1.290143 2.649513,-0.32708 5.318646,-0.529604 7.987777,-0.580968 2.392472,-0.04604 5.128907,-0.04417 7.174566,0.244902 0.854879,2.555493 0.98389,5.214509 1.005628,7.85369 0.02162,2.624991 -0.30131,5.264454 -0.871412,7.826881 -0.451819,2.030782 -1.090549,4.041727 -2.004491,5.910663 -0.948274,1.939141 -2.071175,3.847452 -3.563406,5.407174 -1.378043,1.44037 -2.775506,2.708884 -4.843054,3.508252 0.454891,-2.82655 0.71061,-5.713483 0.489699,-8.5644 -0.19962,-2.576141 -0.448248,-5.280315 -1.62941,-7.578403 -1.120158,-2.179398 -2.834663,-4.193768 -4.94462,-5.439807 -2.242359,-1.324229 -5.004548,-2.024352 -7.599915,-1.810275 -2.304558,0.19009 -4.587937,1.247115 -6.393762,2.691456 -1.890029,1.511689 -3.275345,3.680532 -4.218475,5.909416 -0.85094,2.011013 -1.082655,4.262736 -1.176822,6.444343 -0.107477,2.489979 0.09011,5.028228 0.704389,7.44364 0.53184,2.091261 1.555323,3.887932 2.543076,5.95305 -2.493611,-0.240748 -5.924637,-1.055938 -8.902852,-1.481031 -2.905457,-0.414708 -5.815035,-0.837438 -8.742751,-1.042738 -3.029644,-0.212448 -6.078972,-0.398342 -9.109183,-0.194133 -3.188641,0.214886 -6.651099,0.89747 -9.4713624,1.488542 0,0 2.3982884,-3.410178 3.0926664,-5.349234 0.907259,-2.533526 1.575335,-5.287087 1.314479,-7.965486 -0.181607,-1.864692 -0.744309,-3.846055 -1.967977,-5.26475 -1.0921,-1.266159 -2.7192406,-2.358577 -4.3899092,-2.427195 -1.6301398,-0.06695 -3.3308358,0.834514 -4.463203,2.009071 -1.9289185,2.000785 -2.45722876,4.894858 -3.14205301,7.722844 z"
       id="path6834"
       sodipodi:nodetypes="aaaaaaaaccaaacaaaaccaaaaaaacaaaccaaaaa" />
    <g
       aria-label="VCET SOLECTHON"
       transform="matrix(1.151362,0,0,1.1513637,-60.012592,-181.06052)"
       id="text6905"
       style="font-style:normal;font-variant:normal;font-weight:normal;font-stretch:normal;font-size:8.46667px;line-height:1.25;font-family:Gravicon;-inkscape-font-specification:'Gravicon, Normal';font-variant-ligatures:normal;font-variant-caps:normal;font-variant-numeric:normal;font-variant-east-asian:normal;white-space:pre;shape-inside:url(#rect6907);opacity:1;fill:#35302d;fill-opacity:1;stroke:none;stroke-width:0.0868536;stroke-miterlimit:4;stroke-dasharray:none;stroke-opacity:0.698795">
      <path
         d="m 57.49762,208.41852 -3.209141,4.95709 q -0.327742,0.50527 -0.901291,0.50527 -0.436989,0 -0.751076,-0.31408 -0.314086,-0.31409 -0.314086,-0.75108 v -4.3972 h 1.365592 v 3.37301 l 2.184947,-3.37301 z"
         style="font-style:normal;font-variant:normal;font-weight:normal;font-stretch:normal;font-size:8.46667px;font-family:Gravicon;-inkscape-font-specification:'Gravicon, Normal';font-variant-ligatures:normal;font-variant-caps:normal;font-variant-numeric:normal;font-variant-east-asian:normal;fill:#35302d;fill-opacity:1;stroke:none;stroke-width:0.0868536;stroke-miterlimit:4;stroke-dasharray:none;stroke-opacity:0.698795"
         id="path7472" />
      <path
         d="m 62.345456,209.78411 h -4.369894 v -0.6828 q 0,-0.28677 0.204838,-0.47796 0.204839,-0.20483 0.477957,-0.20483 h 2.772152 z m 0,2.73118 -0.914947,1.36559 h -2.772152 q -0.273118,0 -0.477957,-0.19118 -0.204838,-0.20484 -0.204838,-0.49161 v -3.14086 h 1.365591 v 2.45806 z"
         style="font-style:normal;font-variant:normal;font-weight:normal;font-stretch:normal;font-size:8.46667px;font-family:Gravicon;-inkscape-font-specification:'Gravicon, Normal';font-variant-ligatures:normal;font-variant-caps:normal;font-variant-numeric:normal;font-variant-east-asian:normal;fill:#35302d;fill-opacity:1;stroke:none;stroke-width:0.0868536;stroke-miterlimit:4;stroke-dasharray:none;stroke-opacity:0.698795"
         id="path7474" />
      <path
         d="m 66.442227,210.4669 -0.914947,1.3656 h -0.996882 v -1.3656 z m 0.819355,2.04839 -0.914947,1.36559 h -3.454947 v -5.46236 h 3.454947 l 0.914947,1.36559 H 64.25728 v 2.73118 z"
         style="font-style:normal;font-variant:normal;font-weight:normal;font-stretch:normal;font-size:8.46667px;font-family:Gravicon;-inkscape-font-specification:'Gravicon, Normal';font-variant-ligatures:normal;font-variant-caps:normal;font-variant-numeric:normal;font-variant-east-asian:normal;fill:#35302d;fill-opacity:1;stroke:none;stroke-width:0.0868536;stroke-miterlimit:4;stroke-dasharray:none;stroke-opacity:0.698795"
         id="path7476" />
      <path
         d="m 72.57373,208.41852 -0.914947,1.36559 h -0.996882 v -1.36559 z m -2.184947,5.46236 h -1.365592 v -4.09677 h -1.365592 v -1.36559 h 2.731184 z"
         style="font-style:normal;font-variant:normal;font-weight:normal;font-stretch:normal;font-size:8.46667px;font-family:Gravicon;-inkscape-font-specification:'Gravicon, Normal';font-variant-ligatures:normal;font-variant-caps:normal;font-variant-numeric:normal;font-variant-east-asian:normal;fill:#35302d;fill-opacity:1;stroke:none;stroke-width:0.0868536;stroke-miterlimit:4;stroke-dasharray:none;stroke-opacity:0.698795"
         id="path7478" />
      <path
         d="m 80.972105,209.78411 h -4.369894 v -0.6828 q 0,-0.28677 0.204839,-0.47796 0.204838,-0.20483 0.477957,-0.20483 h 2.772151 z m 0,3.41398 q 0,0.28677 -0.204839,0.49161 -0.204839,0.19118 -0.477957,0.19118 h -3.04527 l -0.914947,-1.36559 h 2.81312 l -2.321507,-2.45806 h 1.870861 l 1.898173,2.04838 q 0.382366,0.42334 0.382366,0.6828 z"
         style="font-style:normal;font-variant:normal;font-weight:normal;font-stretch:normal;font-size:8.46667px;font-family:Gravicon;-inkscape-font-specification:'Gravicon, Normal';font-variant-ligatures:normal;font-variant-caps:normal;font-variant-numeric:normal;font-variant-east-asian:normal;fill:#35302d;fill-opacity:1;stroke:none;stroke-width:0.0868536;stroke-miterlimit:4;stroke-dasharray:none;stroke-opacity:0.698795"
         id="path7480" />
      <path
         d="m 85.833599,209.78411 h -4.369895 v -0.6828 q 0,-0.27312 0.191183,-0.47796 0.204839,-0.20483 0.491613,-0.20483 h 3.004303 q 0.286774,0 0.477957,0.20483 0.204839,0.20484 0.204839,0.47796 z m 0,3.41398 q 0,0.27312 -0.204839,0.47795 -0.191183,0.20484 -0.477957,0.20484 H 82.1465 q -0.286774,0 -0.491613,-0.20484 -0.191183,-0.20483 -0.191183,-0.47795 v -3.14086 h 1.365592 v 2.45806 h 1.638711 v -2.45806 h 1.365592 z"
         style="font-style:normal;font-variant:normal;font-weight:normal;font-stretch:normal;font-size:8.46667px;font-family:Gravicon;-inkscape-font-specification:'Gravicon, Normal';font-variant-ligatures:normal;font-variant-caps:normal;font-variant-numeric:normal;font-variant-east-asian:normal;fill:#35302d;fill-opacity:1;stroke:none;stroke-width:0.0868536;stroke-miterlimit:4;stroke-dasharray:none;stroke-opacity:0.698795"
         id="path7482" />
      <path
         d="m 90.59951,212.51529 -0.914947,1.36559 h -1.816237 v -1.36559 z m -3.004302,1.36559 h -1.365592 v -5.46236 h 1.365592 z"
         style="font-style:normal;font-variant:normal;font-weight:normal;font-stretch:normal;font-size:8.46667px;font-family:Gravicon;-inkscape-font-specification:'Gravicon, Normal';font-variant-ligatures:normal;font-variant-caps:normal;font-variant-numeric:normal;font-variant-east-asian:normal;fill:#35302d;fill-opacity:1;stroke:none;stroke-width:0.0868536;stroke-miterlimit:4;stroke-dasharray:none;stroke-opacity:0.698795"
         id="path7484" />
      <path
         d="m 94.546062,210.4669 -0.914947,1.3656 h -0.996882 v -1.3656 z m 0.819355,2.04839 -0.914947,1.36559 h -3.454947 v -5.46236 h 3.454947 l 0.914947,1.36559 h -3.004302 v 2.73118 z"
         style="font-style:normal;font-variant:normal;font-weight:normal;font-stretch:normal;font-size:8.46667px;font-family:Gravicon;-inkscape-font-specification:'Gravicon, Normal';font-variant-ligatures:normal;font-variant-caps:normal;font-variant-numeric:normal;font-variant-east-asian:normal;fill:#35302d;fill-opacity:1;stroke:none;stroke-width:0.0868536;stroke-miterlimit:4;stroke-dasharray:none;stroke-opacity:0.698795"
         id="path7486" />
      <path
         d="m 100.28154,209.78411 h -4.369891 v -0.6828 q 0,-0.28677 0.204839,-0.47796 0.204839,-0.20483 0.477957,-0.20483 h 2.772152 z m 0,2.73118 -0.914943,1.36559 h -2.772152 q -0.273118,0 -0.477957,-0.19118 -0.204839,-0.20484 -0.204839,-0.49161 v -3.14086 h 1.365592 v 2.45806 z"
         style="font-style:normal;font-variant:normal;font-weight:normal;font-stretch:normal;font-size:8.46667px;font-family:Gravicon;-inkscape-font-specification:'Gravicon, Normal';font-variant-ligatures:normal;font-variant-caps:normal;font-variant-numeric:normal;font-variant-east-asian:normal;fill:#35302d;fill-opacity:1;stroke:none;stroke-width:0.0868536;stroke-miterlimit:4;stroke-dasharray:none;stroke-opacity:0.698795"
         id="path7488" />
      <path
         d="m 105.59369,208.41852 -0.91495,1.36559 h -0.99688 v -1.36559 z m -2.18495,5.46236 h -1.36559 v -4.09677 h -1.36559 v -1.36559 h 2.73118 z"
         style="font-style:normal;font-variant:normal;font-weight:normal;font-stretch:normal;font-size:8.46667px;font-family:Gravicon;-inkscape-font-specification:'Gravicon, Normal';font-variant-ligatures:normal;font-variant-caps:normal;font-variant-numeric:normal;font-variant-east-asian:normal;fill:#35302d;fill-opacity:1;stroke:none;stroke-width:0.0868536;stroke-miterlimit:4;stroke-dasharray:none;stroke-opacity:0.698795"
         id="path7490" />
      <path
         d="m 110.3596,213.88088 h -1.36559 v -2.04838 h -1.36559 v -1.3656 h 1.36559 v -2.04838 h 1.36559 z m -3.0043,0 h -1.36559 v -5.46236 h 1.36559 z"
         style="font-style:normal;font-variant:normal;font-weight:normal;font-stretch:normal;font-size:8.46667px;font-family:Gravicon;-inkscape-font-specification:'Gravicon, Normal';font-variant-ligatures:normal;font-variant-caps:normal;font-variant-numeric:normal;font-variant-east-asian:normal;fill:#35302d;fill-opacity:1;stroke:none;stroke-width:0.0868536;stroke-miterlimit:4;stroke-dasharray:none;stroke-opacity:0.698795"
         id="path7492" />
      <path
         d="m 115.27573,209.78411 h -4.3699 v -0.6828 q 0,-0.27312 0.19118,-0.47796 0.20484,-0.20483 0.49162,-0.20483 h 3.0043 q 0.28677,0 0.47796,0.20483 0.20484,0.20484 0.20484,0.47796 z m 0,3.41398 q 0,0.27312 -0.20484,0.47795 -0.19119,0.20484 -0.47796,0.20484 h -3.0043 q -0.28678,0 -0.49162,-0.20484 -0.19118,-0.20483 -0.19118,-0.47795 v -3.14086 h 1.36559 v 2.45806 h 1.63871 v -2.45806 h 1.3656 z"
         style="font-style:normal;font-variant:normal;font-weight:normal;font-stretch:normal;font-size:8.46667px;font-family:Gravicon;-inkscape-font-specification:'Gravicon, Normal';font-variant-ligatures:normal;font-variant-caps:normal;font-variant-numeric:normal;font-variant-east-asian:normal;fill:#35302d;fill-opacity:1;stroke:none;stroke-width:0.0868536;stroke-miterlimit:4;stroke-dasharray:none;stroke-opacity:0.698795"
         id="path7494" />
      <path
         d="m 120.95658,212.81572 q 0,0.43699 -0.31408,0.75108 -0.31409,0.31408 -0.75108,0.31408 -0.57355,0 -0.90129,-0.50527 l -1.8572,-2.86774 v 3.37301 h -1.3656 v -4.3972 q 0,-0.43699 0.31409,-0.75108 0.31409,-0.31408 0.75108,-0.31408 0.57354,0 0.90129,0.50526 l 1.8572,2.86775 v -3.37301 h 1.36559 z"
         style="font-style:normal;font-variant:normal;font-weight:normal;font-stretch:normal;font-size:8.46667px;font-family:Gravicon;-inkscape-font-specification:'Gravicon, Normal';font-variant-ligatures:normal;font-variant-caps:normal;font-variant-numeric:normal;font-variant-east-asian:normal;fill:#35302d;fill-opacity:1;stroke:none;stroke-width:0.0868536;stroke-miterlimit:4;stroke-dasharray:none;stroke-opacity:0.698795"
         id="path7496" />
    </g>
    <path
       id="path2985-0"
       style="display:inline;opacity:1;fill:#35302d;fill-opacity:1;fill-rule:nonzero;stroke:none;stroke-width:0.1;stroke-linecap:butt;stroke-linejoin:miter;stroke-miterlimit:4;stroke-dasharray:none;stroke-opacity:0.698795"
       d="m 32.006713,28.203944 c 0.430222,0.490547 1.720775,0.297258 2.581102,0.196819 1.981463,-0.231324 3.826154,-1.126526 5.565187,-2.201375 0.464967,-0.287383 1.975966,-1.621894 0.736516,-1.73866 -2.738056,-0.284473 -5.330818,0.890259 -7.463834,2.318237 -0.554976,0.371537 -1.114999,0.807212 -1.418971,1.424979 z m 6.963569,1.03759 c -2.56126,1.511868 -5.34708,2.823528 -8.359731,3.008385 -2.027833,0.193958 -4.068194,0.125453 -6.096437,-0.0247 0,10e-6 4.185282,-3.886762 6.578789,-5.416391 2.429824,-1.552838 5.043135,-2.890362 7.795252,-3.751296 3.83978,-1.201185 11.91978,-1.897279 11.91978,-1.897279 l -1.799108,1.782621 -10.038549,6.298655 z"
       sodipodi:nodetypes="csscscsccaacccs" />
    <path
       style="display:inline;opacity:1;mix-blend-mode:normal;fill:#fef200;fill-opacity:1;fill-rule:nonzero;stroke:none;stroke-width:0.1;stroke-linecap:butt;stroke-linejoin:miter;stroke-miterlimit:4;stroke-dasharray:none;stroke-opacity:0.698795"
       d="m 50.807935,21.160244 c 1.731849,-0.575187 3.468414,-1.190904 5.244614,-1.637157 2.266023,-0.569316 4.571671,-0.984075 6.883576,-1.321826 2.686696,-0.392504 5.396081,-0.626185 8.104613,-0.816568 C 73.21337,17.231979 77.569506,17.12383 77.569506,17.12383 76.110893,13.468834 73.840776,10.431548 71.042929,7.9168561 67.6538,4.8707221 63.545699,2.2979019 59.113016,1.2412762 53.412068,-0.11766811 47.121541,0.17448196 41.546598,1.9821188 36.3063,3.6812492 31.376759,6.9453958 27.767639,11.107369 c -2.686701,3.098256 -4.3783,7.113454 -5.272492,11.1157 -0.53412,2.390626 -0.806592,6.518158 -0.504153,8.612848 0.10508,0.727786 0.279562,1.210173 0.536583,1.289052 0.548149,0.0566 1.986537,0.10026 1.986537,0.10026 0,0 4.185281,-3.88677 6.578789,-5.416401 2.429824,-1.552839 5.043135,-2.890361 7.795251,-3.751295 3.839781,-1.201185 11.919781,-1.89728 11.919781,-1.89728 z"
       id="path2989-8"
       sodipodi:nodetypes="caaacaaaassccaacc" />
  </g>
  <animate
     type="rotate"
     attributeName="transform"
     dur="12s"
     repeatCount="indefinite"
     values="360 439.27 421.32;0 439.27 421.32" />
</svg>
