<?xml version="1.0" encoding="UTF-8" standalone="no"?>
<svg
   xmlns:dc="http://purl.org/dc/elements/1.1/"
   xmlns:cc="http://creativecommons.org/ns#"
   xmlns:rdf="http://www.w3.org/1999/02/22-rdf-syntax-ns#"
   xmlns:svg="http://www.w3.org/2000/svg"
   xmlns="http://www.w3.org/2000/svg"
   xmlns:sodipodi="http://sodipodi.sourceforge.net/DTD/sodipodi-0.dtd"
   xmlns:inkscape="http://www.inkscape.org/namespaces/inkscape"
   width="79.559441mm"
   height="65.194344mm"
   viewBox="0 0 79.559441 65.194344"
   version="1.1"
   id="svg6879"
   inkscape:version="1.0.2-2 (e86c870879, 2021-01-15)"
   sodipodi:docname="teamLogoNew.svg">
  <defs
     id="defs6873">
    <rect
       x="52.117558"
       y="206.59933"
       width="81.249939"
       height="10.156242"
       id="rect6907" />
  </defs>
  <sodipodi:namedview
     id="base"
     pagecolor="#ffffff"
     bordercolor="#666666"
     borderopacity="1.0"
     inkscape:pageopacity="0.0"
     inkscape:pageshadow="2"
     inkscape:zoom="1.979899"
     inkscape:cx="103.71878"
     inkscape:cy="85.58965"
     inkscape:document-units="mm"
     inkscape:current-layer="layer1"
     inkscape:document-rotation="0"
     showgrid="false"
     inkscape:window-width="1264"
     inkscape:window-height="967"
     inkscape:window-x="0"
     inkscape:window-y="0"
     inkscape:window-maximized="0"
     inkscape:pagecheckerboard="false"
     units="mm"
     fit-margin-top="0"
     fit-margin-left="0"
     fit-margin-right="0"
     fit-margin-bottom="0" />
  <metadata
     id="metadata6876">
    <rdf:RDF>
      <cc:Work
         rdf:about="">
        <dc:format>image/svg+xml</dc:format>
        <dc:type
           rdf:resource="http://purl.org/dc/dcmitype/StillImage" />
        <dc:title></dc:title>
      </cc:Work>
    </rdf:RDF>
  </metadata>
  <g
     inkscape:label="Layer 1"
     inkscape:groupmode="layer"
     id="layer1">
    <path
       style="display:inline;mix-blend-mode:normal;fill:#fef200;fill-opacity:1;fill-rule:nonzero;stroke:#000000;stroke-width:0;stroke-linecap:butt;stroke-linejoin:miter;stroke-miterlimit:4;stroke-dasharray:none;stroke-opacity:1"
       d="m 50.807946,21.160244 c 0,0 1.640443,-0.55622 2.46912,-0.80749 1.64363,-0.49838 3.28458,-1.01953 4.962123,-1.38799 2.06783,-0.45418 4.17134,-0.73522 6.27058,-1.00982 2.39351,-0.31309 4.79928,-0.5299 7.20517,-0.72633 1.70455,-0.13917 4.9184,-0.22869 5.12065,-0.32025 0.18739,-0.0848 -1.32428,-3.14901 -2.42755,-4.71124 -1.12281,-1.5899 -2.53922,-3.2366198 -4.01988,-4.6544498 -1.60392,-1.53586 -3.32028,-2.99173 -5.22588,-4.13195 -1.82784,-1.0937 -3.79957,-2.01166 -5.86215,-2.54362997 -2.782103,-0.71755 -5.711623,-0.98304 -8.580223,-0.82137 -3.1202,0.17585 -6.22861,0.88981 -9.17331,1.93638997 -2.74645,0.97612 -5.35591,2.37481 -7.77644,3.99864 -2.18512,1.4659 -4.29551,3.12419 -6.00254,5.1266098 -1.56116,1.83131 -2.77482,3.96721 -3.76064,6.16245 -0.70719,1.57478 -1.16537,3.2621 -1.51186,4.95325 -0.35871,1.75079 -0.59965,3.54326 -0.57757,5.33029 0.019,1.53726 0.0618,4.51505 0.61,4.57161 0.54815,0.0566 1.98654,0.10026 1.98654,0.10026 9.444367,-6.087468 7.113284,-8.321438 26.29386,-11.06498 z"
       id="path2989-8"
       sodipodi:nodetypes="csssscsssssssssssccc" />
    <path
       style="display:inline;fill:#35302d;fill-opacity:1;stroke:#000000;stroke-width:0;stroke-linecap:butt;stroke-linejoin:miter;stroke-miterlimit:4;stroke-dasharray:none;stroke-opacity:1"
       d="m 61.024009,32.737184 c 0.0239,0.024 -1.49939,-2.49088 -7.425153,-1.31438 -2.93489,0.58269 -5.20319,3.50467 -6.12139,5.64376 -1.16459,2.7131 -1.34166,5.89409 -0.88619,8.81642 0.36363,2.33305 1.29505,4.77803 2.92726,6.48426 1.50666,1.57499 3.21654,2.41291 5.35224,2.8481 1.15324,0.235 2.581453,0.21463 3.694023,-0.1146 1.63815,-0.48476 2.70318,-1.3326 2.54177,-1.26996 -0.39466,0.15316 -5.312043,1.47655 -7.851893,-1.33586 -1.60836,-1.78096 -2.64446,-3.98727 -3.11335,-6.34559 -0.48263,-2.42742 -0.31799,-4.93301 0.32449,-7.30962 0.49506,-1.83126 1.70422,-3.33003 2.89192,-4.51662 2.24093,-2.23883 7.666273,-1.58591 7.666273,-1.58591 z"
       id="path2970-7"
       sodipodi:nodetypes="csssssssssssc" />
    <path
       style="display:inline;fill:#35302d;fill-opacity:1;stroke:#000000;stroke-width:0;stroke-linecap:butt;stroke-linejoin:miter;stroke-miterlimit:4;stroke-dasharray:none;stroke-opacity:1"
       d="m 8.2589082,34.959534 c -0.02488,-0.0754 -2.029997,-0.0615 -2.878978,0.5202 -1.101682,0.75485 -1.896685,1.67573 -2.42297,2.77058 -0.507374,1.05551 -0.765133,2.25166 -0.953241,3.4201 -0.178028,1.10583 -0.233382,2.23881 -0.159292,3.35642 0.07416,1.11868 0.209256,2.25891 0.601538,3.30918 0.300997,0.80587 0.723795,1.59604 1.316003,2.22 0.550435,0.57994 1.23445,1.08798 1.996779,1.32915 0.783693,0.24793 2.381802,-0.17375 2.415032,-0.22399 0.017,-0.0265 -0.460426,-0.1447 -0.934699,-0.50171 -0.440122,-0.3313 -0.866116,-0.88441 -1.176184,-1.35696 -0.612322,-0.93319 -1.164013,-2.06732 -1.445099,-3.24567 -0.276038,-1.15719 -0.52154,-2.44158 -0.521711,-3.68076 -1.76e-4,-1.28368 0.136907,-2.59412 0.539394,-3.81307 0.300032,-0.90865 0.732626,-1.80882 1.369533,-2.52298 0.610747,-0.68483 2.253895,-1.58049 2.253895,-1.58049 z"
       id="path2973-2"
       sodipodi:nodetypes="cssaaaascsssaaac" />
    <path
       id="path2985-0"
       style="display:inline;fill:#35302d;fill-opacity:1;fill-rule:nonzero;stroke:#000000;stroke-width:0;stroke-linecap:butt;stroke-linejoin:miter;stroke-miterlimit:4;stroke-dasharray:none;stroke-opacity:1"
       d="m 32.006696,28.203944 c 0,0 -0.13182,0.28342 0.44355,0.25859 0.4909,-0.0212 0.91418,-0.008 1.36826,-0.0543 0.65275,-0.0667 1.30587,-0.16075 1.94203,-0.32147 0.78398,-0.19807 1.54552,-0.48274 2.29426,-0.78812 0.4762,-0.19422 0.94978,-0.40225 1.39351,-0.66224 0.47498,-0.2783 0.95499,-0.56884 1.34762,-0.95471 0.21685,-0.21312 0.43599,-0.44937 0.54013,-0.73502 0.0428,-0.11741 0.16392,-0.33033 0.0245,-0.3741 -0.61127,-0.19194 -1.29891,-0.19938 -1.95219,-0.18136 -0.49262,0.0136 -0.98349,0.1011 -1.4623,0.21769 -0.53295,0.12978 -1.0514,0.31996 -1.55682,0.53312 -0.62479,0.2635 -1.22689,0.58108 -1.81523,0.9182 -0.44744,0.25639 -0.90124,0.51155 -1.30051,0.83794 -0.47,0.3842 -0.97402,0.71935 -1.26681,1.30579 z m 6.96358,1.03759 c 0,0 -2.1882,1.25767 -3.34935,1.74335 -0.98906,0.4137 -2.01163,0.76706 -3.0606,0.98853 -1.20911,0.25529 -2.45293,0.32639 -3.68735,0.38395 -0.85687,0.04 -1.71597,0.002 -2.57326,-0.0272 -0.59588,-0.0206 -1.78563,-0.10494 -1.78563,-0.10494 0,0 1.11543,-1.02451 1.69137,-1.51593 0.88804,-0.75773 1.79196,-1.49776 2.71874,-2.20758 0.95305,-0.72994 1.90721,-1.46354 2.9202,-2.10774 1.30663,-0.83094 2.66254,-1.59033 4.05953,-2.25828 0.92143,-0.44057 1.87287,-0.82192 2.84046,-1.14887 1.212,-0.40954 2.45248,-0.73763 3.70161,-1.01395 1.03002,-0.22785 2.07258,-0.40525 3.12018,-0.52931 1.09165,-0.12928 2.19233,-0.16898 3.29027,-0.22312 0.65002,-0.032 1.9515,-0.0602 1.9515,-0.0602 l -1.79911,1.78263 c -0.255302,6.1177 -4.865141,6.57451 -10.03856,6.29866 z" />
    <path
       style="display:inline;mix-blend-mode:normal;fill:#ee1c25;fill-opacity:1;fill-rule:nonzero;stroke:#000000;stroke-width:0;stroke-linecap:butt;stroke-linejoin:miter;stroke-miterlimit:4;stroke-dasharray:none;stroke-opacity:1"
       d="m 0.26425322,42.673714 c 0,0 -0.247697,-3.2092 -0.0512,-4.79575 0.145595,-1.17556 0.398573,-2.36535 0.90368498,-3.43679 0.476803,-1.0114 1.121733,-1.98221 1.959796,-2.72242 0.731037,-0.64568 1.794976,-1.03497 2.798205,-1.13229 1.053389,-0.10218 2.334964,-0.01 3.488763,0.14327 1.3548848,0.17969 2.6591158,0.63591 3.9990238,0.90544 1.45878,0.29344 2.92928,0.52548 4.39631,0.77438 1.65108,0.28013 3.29747,0.59528 4.95843,0.80921 1.55912,0.20081 3.12341,0.40855 4.69499,0.44458 1.28019,0.0293 2.56903,-0.008 3.83706,-0.18648 1.10548,-0.15558 2.24139,-0.31039 3.26009,-0.76705 1.08992,-0.48859 2.04273,-1.26207 2.93338,-2.05792 0.47506,-0.4245 0.99151,-0.93799 1.52749,-1.41036 0.40578,-0.35763 0.82276,-0.6917 1.24146,-0.94574 0.81559,-0.49485 1.51687,-0.92651 2.26986,-1.39853 1.05455,-0.66107 2.11059,-1.3203 3.1482,-2.00765 0.88445,-0.58589 1.96638,-1.60244 2.62241,-1.80351 0.24573,-0.0753 0.50459,-0.0958 0.75663,-0.14323 1.0594,-0.19932 2.11639,-0.39917 3.17762,-0.67867 1.28964,-0.33966 2.53505,-0.48779 3.77276,-0.78199 1.403073,-0.3335 2.816253,-0.62705 4.236103,-0.87977 1.22954,-0.21885 2.46951,-0.37462 3.7059,-0.55069 1.81826,-0.25893 3.62796,-0.60584 5.45938,-0.74367 1.83616,-0.13818 3.68405,-0.16658 5.52346,-0.082 1.38401,0.0636 3.66503,0.39606 3.66503,0.39606 0,0 0.80818,2.70823 0.8989,4.04594 0.0859,1.26684 0.12591,2.53815 0.10673,3.80775 -0.0242,1.60077 -0.0677,3.20784 -0.27953,4.79473 -0.17276,1.29442 -0.45549,2.57589 -0.8057,3.83396 -0.4254,1.52821 -0.9781,3.02068 -1.56844,4.49305 -0.45906,1.14494 -0.93842,2.28727 -1.53186,3.36868 -0.62523,1.13933 -1.3069,2.25933 -2.12687,3.26761 -0.52135,0.64108 -1.05942,1.30656 -1.75831,1.74739 -0.96155,0.6065 -3.21167,1.14755 -3.21167,1.14755 0,0 0.39416,-2.7042 0.4757,-4.06651 0.0896,-1.49663 0.10039,-3.00108 0.014,-4.49789 -0.0838,-1.4525 -0.22937,-2.90771 -0.51566,-4.33418 -0.23481,-1.16995 -0.45974,-2.36948 -0.98146,-3.44266 -0.44155,-0.90827 -1.09127,-1.71274 -1.7783,-2.45295 -0.97945,-1.05527 -2.07997,-2.02174 -3.29862,-2.78842 -1.28663,-0.80945 -2.69146,-1.47786 -4.16139,-1.86506 -1.177513,-0.31017 -2.424303,-0.45238 -3.636973,-0.34209 -1.27885,0.11631 -2.56944,0.45188 -3.70745,1.0468 -1.1033,0.57678 -2.0471,1.45124 -2.88476,2.37226 -0.86611,0.9523 -1.52008,2.08428 -2.15972,3.20137 -0.48517,0.84731 -0.91607,1.73 -1.26501,2.6419 -0.36908,0.96456 -0.61332,1.9733 -0.86917,2.97387 -0.27105,1.06003 -0.57466,2.11949 -0.70453,3.20589 -0.14135,1.18241 -0.18289,2.38551 -0.0773,3.57165 0.11675,1.31152 0.43603,2.60147 0.78169,3.87199 0.27275,1.00254 0.55013,2.01803 1.01608,2.94667 0.52558,1.04749 1.54229,2.9785 1.527,3.00638 -0.0153,0.0279 -2.85763,-0.27166 -4.31305,-0.46843 -1.31035,-0.17716 -2.62341,-0.33383 -3.93411,-0.50836 -1.23485,-0.16443 -2.46866,-0.33657 -3.70261,-0.50764 -1.60919,-0.22309 -3.21413,-0.47819 -4.82656,-0.67651 -1.60592,-0.19751 -3.21116,-0.42849 -4.82707,-0.51114 -1.71758,-0.0879 -3.44351,-0.0986 -5.15945,0.017 -1.23203,0.083 -2.44856,0.32207 -3.67263,0.48465 -1.04787,0.13917 -2.10029,0.24801 -3.14325,0.42015 -0.887405,0.14647 -2.6474718,0.52092 -2.6474718,0.52092 0,0 0.6371658,-1.48893 0.9990908,-2.21278 0.544961,-1.08993 1.25682,-2.09406 1.762851,-3.2026 0.56048,-1.22782 1.12431,-2.47798 1.40091,-3.79903 0.2806,-1.34013 0.39456,-2.73939 0.2443,-4.10031 -0.11716,-1.06114 -0.49734,-2.08319 -0.88338,-3.07854 -0.29416,-0.75844 -0.63132,-1.51071 -1.0846,-2.18621 -0.500435,-0.74578 -1.032953,-1.52392 -1.779642,-2.023 -0.6869198,-0.45913 -1.5195588,-0.78796 -2.3456898,-0.80107 -0.819337,-0.013 -1.643718,0.30551 -2.350434,0.72028 -0.739654,0.4341 -1.317625,1.11389 -1.857642,1.78016 -0.595276,0.73445 -1.063878,1.56871 -1.495798,2.40967 -0.860484,1.67538 -2.16597698,5.21868 -2.16597698,5.21868 z"
       id="path6834"
       sodipodi:nodetypes="csssscsssccssssssscsssssccsscssssscscsssssssssssssssssssscssscsssssssssssc" />
    <g
       aria-label="VCET SOLECTHON"
       transform="matrix(1.1513637,0,0,1.1513637,-60.241682,-181.06034)"
       id="text6905"
       style="font-style:normal;font-variant:normal;font-weight:normal;font-stretch:normal;font-size:8.46667px;line-height:1.25;font-family:Gravicon;-inkscape-font-specification:'Gravicon, Normal';font-variant-ligatures:normal;font-variant-caps:normal;font-variant-numeric:normal;font-variant-east-asian:normal;white-space:pre;shape-inside:url(#rect6907);fill:#35302d;fill-opacity:1;stroke:#000000;stroke-width:0;stroke-miterlimit:4;stroke-dasharray:none;stroke-opacity:1">
      <path
         d="m 57.49762,208.41852 -3.209141,4.95709 q -0.327742,0.50527 -0.901291,0.50527 -0.436989,0 -0.751076,-0.31408 -0.314086,-0.31409 -0.314086,-0.75108 v -4.3972 h 1.365592 v 3.37301 l 2.184947,-3.37301 z"
         style="font-style:normal;font-variant:normal;font-weight:normal;font-stretch:normal;font-size:8.46667px;font-family:Gravicon;-inkscape-font-specification:'Gravicon, Normal';font-variant-ligatures:normal;font-variant-caps:normal;font-variant-numeric:normal;font-variant-east-asian:normal;fill:#35302d;fill-opacity:1;stroke:#000000;stroke-width:0;stroke-miterlimit:4;stroke-dasharray:none;stroke-opacity:1"
         id="path7472" />
      <path
         d="m 62.345456,209.78411 h -4.369894 v -0.6828 q 0,-0.28677 0.204838,-0.47796 0.204839,-0.20483 0.477957,-0.20483 h 2.772152 z m 0,2.73118 -0.914947,1.36559 h -2.772152 q -0.273118,0 -0.477957,-0.19118 -0.204838,-0.20484 -0.204838,-0.49161 v -3.14086 h 1.365591 v 2.45806 z"
         style="font-style:normal;font-variant:normal;font-weight:normal;font-stretch:normal;font-size:8.46667px;font-family:Gravicon;-inkscape-font-specification:'Gravicon, Normal';font-variant-ligatures:normal;font-variant-caps:normal;font-variant-numeric:normal;font-variant-east-asian:normal;fill:#35302d;fill-opacity:1;stroke:#000000;stroke-width:0;stroke-miterlimit:4;stroke-dasharray:none;stroke-opacity:1"
         id="path7474" />
      <path
         d="m 66.442227,210.4669 -0.914947,1.3656 h -0.996882 v -1.3656 z m 0.819355,2.04839 -0.914947,1.36559 h -3.454947 v -5.46236 h 3.454947 l 0.914947,1.36559 H 64.25728 v 2.73118 z"
         style="font-style:normal;font-variant:normal;font-weight:normal;font-stretch:normal;font-size:8.46667px;font-family:Gravicon;-inkscape-font-specification:'Gravicon, Normal';font-variant-ligatures:normal;font-variant-caps:normal;font-variant-numeric:normal;font-variant-east-asian:normal;fill:#35302d;fill-opacity:1;stroke:#000000;stroke-width:0;stroke-miterlimit:4;stroke-dasharray:none;stroke-opacity:1"
         id="path7476" />
      <path
         d="m 72.57373,208.41852 -0.914947,1.36559 h -0.996882 v -1.36559 z m -2.184947,5.46236 h -1.365592 v -4.09677 h -1.365592 v -1.36559 h 2.731184 z"
         style="font-style:normal;font-variant:normal;font-weight:normal;font-stretch:normal;font-size:8.46667px;font-family:Gravicon;-inkscape-font-specification:'Gravicon, Normal';font-variant-ligatures:normal;font-variant-caps:normal;font-variant-numeric:normal;font-variant-east-asian:normal;fill:#35302d;fill-opacity:1;stroke:#000000;stroke-width:0;stroke-miterlimit:4;stroke-dasharray:none;stroke-opacity:1"
         id="path7478" />
      <path
         d="m 80.972105,209.78411 h -4.369894 v -0.6828 q 0,-0.28677 0.204839,-0.47796 0.204838,-0.20483 0.477957,-0.20483 h 2.772151 z m 0,3.41398 q 0,0.28677 -0.204839,0.49161 -0.204839,0.19118 -0.477957,0.19118 h -3.04527 l -0.914947,-1.36559 h 2.81312 l -2.321507,-2.45806 h 1.870861 l 1.898173,2.04838 q 0.382366,0.42334 0.382366,0.6828 z"
         style="font-style:normal;font-variant:normal;font-weight:normal;font-stretch:normal;font-size:8.46667px;font-family:Gravicon;-inkscape-font-specification:'Gravicon, Normal';font-variant-ligatures:normal;font-variant-caps:normal;font-variant-numeric:normal;font-variant-east-asian:normal;fill:#35302d;fill-opacity:1;stroke:#000000;stroke-width:0;stroke-miterlimit:4;stroke-dasharray:none;stroke-opacity:1"
         id="path7480" />
      <path
         d="m 85.833599,209.78411 h -4.369895 v -0.6828 q 0,-0.27312 0.191183,-0.47796 0.204839,-0.20483 0.491613,-0.20483 h 3.004303 q 0.286774,0 0.477957,0.20483 0.204839,0.20484 0.204839,0.47796 z m 0,3.41398 q 0,0.27312 -0.204839,0.47795 -0.191183,0.20484 -0.477957,0.20484 H 82.1465 q -0.286774,0 -0.491613,-0.20484 -0.191183,-0.20483 -0.191183,-0.47795 v -3.14086 h 1.365592 v 2.45806 h 1.638711 v -2.45806 h 1.365592 z"
         style="font-style:normal;font-variant:normal;font-weight:normal;font-stretch:normal;font-size:8.46667px;font-family:Gravicon;-inkscape-font-specification:'Gravicon, Normal';font-variant-ligatures:normal;font-variant-caps:normal;font-variant-numeric:normal;font-variant-east-asian:normal;fill:#35302d;fill-opacity:1;stroke:#000000;stroke-width:0;stroke-miterlimit:4;stroke-dasharray:none;stroke-opacity:1"
         id="path7482" />
      <path
         d="m 90.59951,212.51529 -0.914947,1.36559 h -1.816237 v -1.36559 z m -3.004302,1.36559 h -1.365592 v -5.46236 h 1.365592 z"
         style="font-style:normal;font-variant:normal;font-weight:normal;font-stretch:normal;font-size:8.46667px;font-family:Gravicon;-inkscape-font-specification:'Gravicon, Normal';font-variant-ligatures:normal;font-variant-caps:normal;font-variant-numeric:normal;font-variant-east-asian:normal;fill:#35302d;fill-opacity:1;stroke:#000000;stroke-width:0;stroke-miterlimit:4;stroke-dasharray:none;stroke-opacity:1"
         id="path7484" />
      <path
         d="m 94.546062,210.4669 -0.914947,1.3656 h -0.996882 v -1.3656 z m 0.819355,2.04839 -0.914947,1.36559 h -3.454947 v -5.46236 h 3.454947 l 0.914947,1.36559 h -3.004302 v 2.73118 z"
         style="font-style:normal;font-variant:normal;font-weight:normal;font-stretch:normal;font-size:8.46667px;font-family:Gravicon;-inkscape-font-specification:'Gravicon, Normal';font-variant-ligatures:normal;font-variant-caps:normal;font-variant-numeric:normal;font-variant-east-asian:normal;fill:#35302d;fill-opacity:1;stroke:#000000;stroke-width:0;stroke-miterlimit:4;stroke-dasharray:none;stroke-opacity:1"
         id="path7486" />
      <path
         d="m 100.28154,209.78411 h -4.369891 v -0.6828 q 0,-0.28677 0.204839,-0.47796 0.204839,-0.20483 0.477957,-0.20483 h 2.772152 z m 0,2.73118 -0.914943,1.36559 h -2.772152 q -0.273118,0 -0.477957,-0.19118 -0.204839,-0.20484 -0.204839,-0.49161 v -3.14086 h 1.365592 v 2.45806 z"
         style="font-style:normal;font-variant:normal;font-weight:normal;font-stretch:normal;font-size:8.46667px;font-family:Gravicon;-inkscape-font-specification:'Gravicon, Normal';font-variant-ligatures:normal;font-variant-caps:normal;font-variant-numeric:normal;font-variant-east-asian:normal;fill:#35302d;fill-opacity:1;stroke:#000000;stroke-width:0;stroke-miterlimit:4;stroke-dasharray:none;stroke-opacity:1"
         id="path7488" />
      <path
         d="m 105.59369,208.41852 -0.91495,1.36559 h -0.99688 v -1.36559 z m -2.18495,5.46236 h -1.36559 v -4.09677 h -1.36559 v -1.36559 h 2.73118 z"
         style="font-style:normal;font-variant:normal;font-weight:normal;font-stretch:normal;font-size:8.46667px;font-family:Gravicon;-inkscape-font-specification:'Gravicon, Normal';font-variant-ligatures:normal;font-variant-caps:normal;font-variant-numeric:normal;font-variant-east-asian:normal;fill:#35302d;fill-opacity:1;stroke:#000000;stroke-width:0;stroke-miterlimit:4;stroke-dasharray:none;stroke-opacity:1"
         id="path7490" />
      <path
         d="m 110.3596,213.88088 h -1.36559 v -2.04838 h -1.36559 v -1.3656 h 1.36559 v -2.04838 h 1.36559 z m -3.0043,0 h -1.36559 v -5.46236 h 1.36559 z"
         style="font-style:normal;font-variant:normal;font-weight:normal;font-stretch:normal;font-size:8.46667px;font-family:Gravicon;-inkscape-font-specification:'Gravicon, Normal';font-variant-ligatures:normal;font-variant-caps:normal;font-variant-numeric:normal;font-variant-east-asian:normal;fill:#35302d;fill-opacity:1;stroke:#000000;stroke-width:0;stroke-miterlimit:4;stroke-dasharray:none;stroke-opacity:1"
         id="path7492" />
      <path
         d="m 115.27573,209.78411 h -4.3699 v -0.6828 q 0,-0.27312 0.19118,-0.47796 0.20484,-0.20483 0.49162,-0.20483 h 3.0043 q 0.28677,0 0.47796,0.20483 0.20484,0.20484 0.20484,0.47796 z m 0,3.41398 q 0,0.27312 -0.20484,0.47795 -0.19119,0.20484 -0.47796,0.20484 h -3.0043 q -0.28678,0 -0.49162,-0.20484 -0.19118,-0.20483 -0.19118,-0.47795 v -3.14086 h 1.36559 v 2.45806 h 1.63871 v -2.45806 h 1.3656 z"
         style="font-style:normal;font-variant:normal;font-weight:normal;font-stretch:normal;font-size:8.46667px;font-family:Gravicon;-inkscape-font-specification:'Gravicon, Normal';font-variant-ligatures:normal;font-variant-caps:normal;font-variant-numeric:normal;font-variant-east-asian:normal;fill:#35302d;fill-opacity:1;stroke:#000000;stroke-width:0;stroke-miterlimit:4;stroke-dasharray:none;stroke-opacity:1"
         id="path7494" />
      <path
         d="m 120.95658,212.81572 q 0,0.43699 -0.31408,0.75108 -0.31409,0.31408 -0.75108,0.31408 -0.57355,0 -0.90129,-0.50527 l -1.8572,-2.86774 v 3.37301 h -1.3656 v -4.3972 q 0,-0.43699 0.31409,-0.75108 0.31409,-0.31408 0.75108,-0.31408 0.57354,0 0.90129,0.50526 l 1.8572,2.86775 v -3.37301 h 1.36559 z"
         style="font-style:normal;font-variant:normal;font-weight:normal;font-stretch:normal;font-size:8.46667px;font-family:Gravicon;-inkscape-font-specification:'Gravicon, Normal';font-variant-ligatures:normal;font-variant-caps:normal;font-variant-numeric:normal;font-variant-east-asian:normal;fill:#35302d;fill-opacity:1;stroke:#000000;stroke-width:0;stroke-miterlimit:4;stroke-dasharray:none;stroke-opacity:1"
         id="path7496" />
    </g>
  </g>
</svg>
